<?xml version="1.0" standalone="no"?>
<!DOCTYPE svg PUBLIC "-//W3C//DTD SVG 20010904//EN"
 "http://www.w3.org/TR/2001/REC-SVG-20010904/DTD/svg10.dtd">
<svg version="1.0" xmlns="http://www.w3.org/2000/svg"
 width="117.000000pt" height="117.000000pt" viewBox="0 0 117.000000 117.000000"
 preserveAspectRatio="xMidYMid meet">
<metadata>
Created by potrace 1.14, written by Peter Selinger 2001-2017
</metadata>
<g transform="translate(0.000000,117.000000) scale(0.100000,-0.100000)"
fill="#000000" stroke="none">
<path d="M383 992 c-75 -27 -115 -60 -168 -140 -1 -1 -12 -5 -25 -7 -37 -7
-103 -45 -127 -73 -82 -95 -80 -239 3 -325 34 -34 51 -45 125 -75 16 -6 29
-21 33 -37 16 -65 81 -128 156 -154 24 -8 128 -11 337 -11 294 1 303 2 345 24
155 82 133 318 -35 365 -39 11 -44 17 -60 60 -23 66 -84 131 -150 161 -36 16
-58 32 -61 47 -11 42 -82 118 -137 147 -72 37 -163 44 -236 18z m180 -80 c24
-11 59 -36 79 -58 l37 -38 -52 -13 c-70 -18 -134 -59 -175 -113 -19 -24 -43
-45 -54 -47 -75 -12 -145 -77 -177 -165 -9 -25 -13 -26 -39 -17 -35 12 -77 54
-90 89 -6 14 -9 47 -8 73 3 76 60 135 139 144 38 5 47 10 57 34 43 102 181
156 283 111z"/>
</g>
</svg>
